<svg width="512" height="512" viewBox="0 0 512 512" fill="none" xmlns="http://www.w3.org/2000/svg">
<g clip-path="url(#clip0_202_8)">
<rect width="512" height="512" fill="black"/>
<path d="M181.65 288.85H88.95V377.5H84.45V134.5H181.65C195.75 134.5 207.15 136.15 215.85 139.45C224.85 142.45 231.75 146.65 236.55 152.05C241.35 157.45 244.65 163.9 246.45 171.4C248.25 178.9 249.15 187 249.15 195.7V229C249.15 237.7 248.25 245.8 246.45 253.3C244.65 260.5 241.35 266.8 236.55 272.2C231.75 277.3 224.85 281.35 215.85 284.35C207.15 287.35 195.75 288.85 181.65 288.85ZM88.95 284.35H181.65C194.85 284.35 205.5 283 213.6 280.3C222 277.6 228.45 273.85 232.95 269.05C237.45 263.95 240.45 258.1 241.95 251.5C243.75 244.6 244.65 237.1 244.65 229V195.7C244.65 187.6 243.75 180.1 241.95 173.2C240.45 166.3 237.45 160.3 232.95 155.2C228.45 150.1 222 146.2 213.6 143.5C205.5 140.5 194.85 139 181.65 139H88.95V284.35ZM164.838 377.5V134.5H169.338V373H325.938V284.35H330.438V377.5H164.838ZM354.879 139H256.779V269.05H354.879C373.479 269.05 385.929 264.55 392.229 255.55C398.529 246.55 401.679 233.8 401.679 217.3V185.8C401.679 172 397.779 160.75 389.979 152.05C382.479 143.35 370.779 139 354.879 139ZM256.779 377.5H252.279V134.5H354.879C372.279 134.5 385.179 139.45 393.579 149.35C401.979 158.95 406.179 171.1 406.179 185.8V216.85C406.179 230.65 404.379 242.05 400.779 251.05C397.179 259.75 389.979 265.75 379.179 269.05H384.129C402.429 269.05 416.079 273.25 425.079 281.65C434.079 289.75 438.579 301.6 438.579 317.2V377.5H434.079V317.2C434.079 302.5 430.029 291.55 421.929 284.35C413.829 276.85 401.229 273.1 384.129 273.1H256.779V377.5Z" fill="white"/>
<path d="M88.95 288.85V280.85H80.95V288.85H88.95ZM88.95 377.5V385.5H96.95V377.5H88.95ZM84.45 377.5H76.45V385.5H84.45V377.5ZM84.45 134.5V126.5H76.45V134.5H84.45ZM215.85 139.45L213.013 146.93L213.165 146.988L213.32 147.039L215.85 139.45ZM236.55 152.05L242.529 146.735V146.735L236.55 152.05ZM246.45 171.4L238.671 173.267L238.671 173.267L246.45 171.4ZM246.45 253.3L254.211 255.24L254.22 255.204L254.229 255.167L246.45 253.3ZM236.55 272.2L242.376 277.683L242.454 277.6L242.529 277.515L236.55 272.2ZM215.85 284.35L213.32 276.761L213.281 276.774L213.242 276.787L215.85 284.35ZM88.95 284.35H80.95V292.35H88.95V284.35ZM213.6 280.3L211.152 272.684L211.111 272.697L211.07 272.711L213.6 280.3ZM232.95 269.05L238.786 274.522L238.869 274.433L238.949 274.343L232.95 269.05ZM241.95 251.5L234.209 249.481L234.177 249.603L234.149 249.727L241.95 251.5ZM241.95 173.2L234.133 174.899L234.168 175.06L234.209 175.219L241.95 173.2ZM232.95 155.2L238.949 149.907L238.949 149.907L232.95 155.2ZM213.6 143.5L210.822 151.002L210.985 151.063L211.152 151.116L213.6 143.5ZM88.95 139V131H80.95V139H88.95ZM181.65 280.85H88.95V296.85H181.65V280.85ZM80.95 288.85V377.5H96.95V288.85H80.95ZM88.95 369.5H84.45V385.5H88.95V369.5ZM92.45 377.5V134.5H76.45V377.5H92.45ZM84.45 142.5H181.65V126.5H84.45V142.5ZM181.65 142.5C195.229 142.5 205.561 144.103 213.013 146.93L218.687 131.97C208.739 128.197 196.271 126.5 181.65 126.5V142.5ZM213.32 147.039C221.395 149.731 226.949 153.29 230.571 157.365L242.529 146.735C236.551 140.01 228.305 135.169 218.38 131.861L213.32 147.039ZM230.571 157.365C234.437 161.715 237.157 166.958 238.671 173.267L254.229 169.533C252.143 160.842 248.263 153.185 242.529 146.735L230.571 157.365ZM238.671 173.267C240.307 180.083 241.15 187.55 241.15 195.7H257.15C257.15 186.45 256.193 177.717 254.229 169.533L238.671 173.267ZM241.15 195.7V229H257.15V195.7H241.15ZM241.15 229C241.15 237.15 240.307 244.617 238.671 251.433L254.229 255.167C256.193 246.983 257.15 238.25 257.15 229H241.15ZM238.689 251.36C237.193 257.343 234.489 262.477 230.571 266.885L242.529 277.515C248.211 271.123 252.107 263.657 254.211 255.24L238.689 251.36ZM230.724 266.717C227.096 270.572 221.49 274.037 213.32 276.761L218.38 291.939C228.21 288.663 236.404 284.028 242.376 277.683L230.724 266.717ZM213.242 276.787C205.703 279.387 195.283 280.85 181.65 280.85V296.85C196.217 296.85 208.597 295.313 218.458 291.913L213.242 276.787ZM88.95 292.35H181.65V276.35H88.95V292.35ZM181.65 292.35C195.294 292.35 206.896 290.967 216.13 287.889L211.07 272.711C204.104 275.033 194.406 276.35 181.65 276.35V292.35ZM216.048 287.916C225.317 284.937 233.094 280.593 238.786 274.522L227.114 263.578C223.806 267.107 218.683 270.263 211.152 272.684L216.048 287.916ZM238.949 274.343C244.33 268.244 247.953 261.185 249.751 253.273L234.149 249.727C232.947 255.015 230.57 259.656 226.951 263.757L238.949 274.343ZM249.691 253.519C251.684 245.878 252.65 237.691 252.65 229H236.65C236.65 236.509 235.816 243.322 234.209 249.481L249.691 253.519ZM252.65 229V195.7H236.65V229H252.65ZM252.65 195.7C252.65 187.009 251.684 178.822 249.691 171.181L234.209 175.219C235.816 181.378 236.65 188.191 236.65 195.7H252.65ZM249.767 171.501C247.989 163.32 244.387 156.07 238.949 149.907L226.951 160.493C230.513 164.53 232.911 169.28 234.133 174.899L249.767 171.501ZM238.949 149.907C233.252 143.451 225.42 138.896 216.048 135.884L211.152 151.116C218.58 153.504 223.648 156.749 226.951 160.493L238.949 149.907ZM216.379 135.998C207.049 132.542 195.351 131 181.65 131V147C194.349 147 203.951 148.458 210.822 151.002L216.379 135.998ZM181.65 131H88.95V147H181.65V131ZM80.95 139V284.35H96.95V139H80.95ZM164.838 377.5H156.838V385.5H164.838V377.5ZM164.838 134.5V126.5H156.838V134.5H164.838ZM169.338 134.5H177.338V126.5H169.338V134.5ZM169.338 373H161.338V381H169.338V373ZM325.938 373V381H333.938V373H325.938ZM325.938 284.35V276.35H317.938V284.35H325.938ZM330.438 284.35H338.438V276.35H330.438V284.35ZM330.438 377.5V385.5H338.438V377.5H330.438ZM172.838 377.5V134.5H156.838V377.5H172.838ZM164.838 142.5H169.338V126.5H164.838V142.5ZM161.338 134.5V373H177.338V134.5H161.338ZM169.338 381H325.938V365H169.338V381ZM333.938 373V284.35H317.938V373H333.938ZM325.938 292.35H330.438V276.35H325.938V292.35ZM322.438 284.35V377.5H338.438V284.35H322.438ZM330.438 369.5H164.838V385.5H330.438V369.5ZM256.779 139V131H248.779V139H256.779ZM256.779 269.05H248.779V277.05H256.779V269.05ZM392.229 255.55L398.783 260.138V260.138L392.229 255.55ZM389.979 152.05L383.92 157.274L383.97 157.332L384.022 157.39L389.979 152.05ZM256.779 377.5V385.5H264.779V377.5H256.779ZM252.279 377.5H244.279V385.5H252.279V377.5ZM252.279 134.5V126.5H244.279V134.5H252.279ZM393.579 149.35L387.479 154.526L387.518 154.572L387.558 154.618L393.579 149.35ZM400.779 251.05L408.171 254.109L408.189 254.065L408.207 254.021L400.779 251.05ZM379.179 269.05L376.841 261.399L379.179 277.05V269.05ZM425.079 281.65L419.62 287.498L419.673 287.548L419.727 287.596L425.079 281.65ZM438.579 377.5V385.5H446.579V377.5H438.579ZM434.079 377.5H426.079V385.5H434.079V377.5ZM421.929 284.35L416.494 290.22L416.553 290.275L416.614 290.329L421.929 284.35ZM256.779 273.1V265.1H248.779V273.1H256.779ZM354.879 131H256.779V147H354.879V131ZM248.779 139V269.05H264.779V139H248.779ZM256.779 277.05H354.879V261.05H256.779V277.05ZM354.879 277.05C374.288 277.05 390.187 272.417 398.783 260.138L385.675 250.962C381.671 256.683 372.67 261.05 354.879 261.05V277.05ZM398.783 260.138C406.388 249.273 409.679 234.665 409.679 217.3H393.679C393.679 232.935 390.67 243.827 385.675 250.962L398.783 260.138ZM409.679 217.3V185.8H393.679V217.3H409.679ZM409.679 185.8C409.679 170.407 405.283 157.136 395.935 146.71L384.022 157.39C390.275 164.364 393.679 173.593 393.679 185.8H409.679ZM396.038 146.826C386.5 135.762 372.173 131 354.879 131V147C369.385 147 378.458 150.938 383.92 157.274L396.038 146.826ZM256.779 369.5H252.279V385.5H256.779V369.5ZM260.279 377.5V134.5H244.279V377.5H260.279ZM252.279 142.5H354.879V126.5H252.279V142.5ZM354.879 142.5C370.776 142.5 381.072 146.975 387.479 154.526L399.679 144.174C389.285 131.925 373.782 126.5 354.879 126.5V142.5ZM387.558 154.618C394.49 162.54 398.179 172.724 398.179 185.8H414.179C414.179 169.476 409.468 155.36 399.6 144.082L387.558 154.618ZM398.179 185.8V216.85H414.179V185.8H398.179ZM398.179 216.85C398.179 230.03 396.449 240.334 393.351 248.079L408.207 254.021C412.309 243.766 414.179 231.27 414.179 216.85H398.179ZM393.387 247.991C390.885 254.037 385.859 258.644 376.841 261.399L381.517 276.701C394.099 272.856 403.473 265.463 408.171 254.109L393.387 247.991ZM379.179 277.05H384.129V261.05H379.179V277.05ZM384.129 277.05C401.37 277.05 412.683 281.024 419.62 287.498L430.537 275.802C419.475 265.476 403.488 261.05 384.129 261.05V277.05ZM419.727 287.596C426.586 293.769 430.579 303.172 430.579 317.2H446.579C446.579 300.028 441.572 285.731 430.431 275.704L419.727 287.596ZM430.579 317.2V377.5H446.579V317.2H430.579ZM438.579 369.5H434.079V385.5H438.579V369.5ZM442.079 377.5V317.2H426.079V377.5H442.079ZM442.079 317.2C442.079 301.067 437.599 287.576 427.244 278.371L416.614 290.329C422.459 295.524 426.079 303.933 426.079 317.2H442.079ZM427.364 278.48C417.154 269.026 402.177 265.1 384.129 265.1V281.1C400.281 281.1 410.503 284.674 416.494 290.22L427.364 278.48ZM384.129 265.1H256.779V281.1H384.129V265.1ZM248.779 273.1V377.5H264.779V273.1H248.779Z" fill="white"/>
</g>
<defs>
<clipPath id="clip0_202_8">
<rect width="512" height="512" fill="white"/>
</clipPath>
</defs>
</svg>
